<svg width="777" height="239" viewBox="0 0 777 239" fill="none" xmlns="http://www.w3.org/2000/svg">
<ellipse cx="115" cy="108.854" rx="17.7835" ry="17.1875" fill="white"/>
<ellipse cx="115" cy="159.271" rx="15.4124" ry="14.8958" fill="white"/>
<ellipse cx="115" cy="58.4375" rx="15.4124" ry="14.8958" fill="white"/>
<ellipse cx="62.835" cy="83.6458" rx="15.4124" ry="14.8958" fill="white"/>
<ellipse cx="167.165" cy="83.6458" rx="15.4124" ry="14.8958" fill="white"/>
<ellipse cx="167.165" cy="136.354" rx="15.4124" ry="14.8958" fill="white"/>
<ellipse cx="62.835" cy="136.354" rx="15.4124" ry="14.8958" fill="white"/>
<ellipse cx="13.0412" cy="111.146" rx="13.0412" ry="12.6042" fill="white"/>
<ellipse cx="13.0412" cy="163.854" rx="10.6701" ry="10.3125" fill="white"/>
<ellipse cx="216.959" cy="163.854" rx="10.6701" ry="10.3125" fill="white"/>
<ellipse cx="115" cy="209.688" rx="10.6701" ry="10.3125" fill="white"/>
<ellipse cx="115" cy="10.3125" rx="10.6701" ry="10.3125" fill="white"/>
<ellipse cx="216.959" cy="58.4375" rx="10.6701" ry="10.3125" fill="white"/>
<ellipse cx="13.0412" cy="58.4375" rx="10.6701" ry="10.3125" fill="white"/>
<ellipse cx="65.2062" cy="33.2292" rx="13.0412" ry="12.6042" fill="white"/>
<ellipse cx="65.2062" cy="186.771" rx="13.0412" ry="12.6042" fill="white"/>
<ellipse cx="164.794" cy="186.771" rx="13.0412" ry="12.6042" fill="white"/>
<ellipse cx="164.794" cy="33.2292" rx="13.0412" ry="12.6042" fill="white"/>
<ellipse cx="216.959" cy="111.146" rx="13.0412" ry="12.6042" fill="white"/>
<path d="M320.785 156V65.12H338.449V140.512H384.785V156H320.785ZM431.688 156.64C424.434 156.64 418.248 155.445 413.128 153.056C408.093 150.581 403.997 147.211 400.84 142.944C397.768 138.677 395.506 133.856 394.056 128.48C392.605 123.019 391.88 117.344 391.88 111.456V65.12H409.544V111.456C409.544 115.211 409.885 118.88 410.568 122.464C411.336 125.963 412.573 129.12 414.28 131.936C415.986 134.752 418.248 136.971 421.064 138.592C423.88 140.213 427.378 141.024 431.56 141.024C435.826 141.024 439.368 140.213 442.184 138.592C445.085 136.885 447.346 134.624 448.968 131.808C450.674 128.992 451.912 125.835 452.68 122.336C453.448 118.752 453.832 115.125 453.832 111.456V65.12H471.368V111.456C471.368 117.685 470.6 123.531 469.064 128.992C467.613 134.453 465.266 139.275 462.024 143.456C458.866 147.552 454.77 150.795 449.736 153.184C444.701 155.488 438.685 156.64 431.688 156.64ZM483.656 109.92C483.656 104.373 484.637 98.9547 486.6 93.664C488.648 88.288 491.592 83.424 495.432 79.072C499.272 74.6347 503.965 71.136 509.512 68.576C515.058 65.9307 521.373 64.608 528.456 64.608C536.818 64.608 544.029 66.4427 550.088 70.112C556.232 73.7813 560.797 78.56 563.784 84.448L550.215 93.792C548.68 90.3787 546.674 87.6907 544.2 85.728C541.725 83.68 539.08 82.272 536.264 81.504C533.448 80.6507 530.674 80.224 527.944 80.224C523.506 80.224 519.624 81.12 516.296 82.912C513.053 84.704 510.322 87.0507 508.104 89.952C505.885 92.8533 504.221 96.096 503.112 99.68C502.088 103.264 501.576 106.848 501.576 110.432C501.576 114.443 502.216 118.325 503.496 122.08C504.776 125.749 506.568 129.035 508.872 131.936C511.261 134.752 514.077 137.013 517.319 138.72C520.648 140.341 524.274 141.152 528.2 141.152C531.016 141.152 533.874 140.683 536.776 139.744C539.677 138.805 542.365 137.312 544.84 135.264C547.314 133.216 549.234 130.571 550.6 127.328L565.064 135.648C563.272 140.171 560.328 144.011 556.232 147.168C552.221 150.325 547.698 152.715 542.664 154.336C537.629 155.957 532.637 156.768 527.688 156.768C521.202 156.768 515.272 155.445 509.896 152.8C504.52 150.069 499.869 146.485 495.944 142.048C492.104 137.525 489.074 132.491 486.856 126.944C484.722 121.312 483.656 115.637 483.656 109.92ZM576.91 156V65.12H594.574V156H576.91ZM613.535 156V65.12H646.559C656.457 65.12 664.735 67.168 671.391 71.264C678.047 75.2747 683.039 80.736 686.367 87.648C689.695 94.4747 691.359 102.069 691.359 110.432C691.359 119.648 689.524 127.669 685.855 134.496C682.185 141.323 676.98 146.613 670.239 150.368C663.583 154.123 655.689 156 646.559 156H613.535ZM673.567 110.432C673.567 104.544 672.5 99.3813 670.367 94.944C668.233 90.4213 665.161 86.9227 661.151 84.448C657.14 81.888 652.276 80.608 646.559 80.608H631.199V140.512H646.559C652.361 140.512 657.268 139.232 661.279 136.672C665.289 134.027 668.319 130.443 670.367 125.92C672.5 121.312 673.567 116.149 673.567 110.432Z" fill="white"/>
<path d="M246.842 217V199.96H250.154V214.096H258.842V217H246.842ZM266.26 217.24C265.236 217.24 264.316 217.072 263.5 216.736C262.684 216.384 261.988 215.904 261.412 215.296C260.852 214.688 260.42 213.992 260.116 213.208C259.812 212.424 259.66 211.6 259.66 210.736C259.66 209.856 259.812 209.024 260.116 208.24C260.42 207.456 260.852 206.76 261.412 206.152C261.988 205.544 262.684 205.072 263.5 204.736C264.316 204.384 265.236 204.208 266.26 204.208C267.284 204.208 268.196 204.384 268.996 204.736C269.812 205.072 270.508 205.544 271.084 206.152C271.66 206.76 272.092 207.456 272.38 208.24C272.684 209.024 272.836 209.856 272.836 210.736C272.836 211.6 272.684 212.424 272.38 213.208C272.092 213.992 271.66 214.688 271.084 215.296C270.524 215.904 269.836 216.384 269.02 216.736C268.204 217.072 267.284 217.24 266.26 217.24ZM262.972 210.736C262.972 211.472 263.116 212.128 263.404 212.704C263.692 213.264 264.084 213.704 264.58 214.024C265.076 214.344 265.636 214.504 266.26 214.504C266.868 214.504 267.42 214.344 267.916 214.024C268.412 213.688 268.804 213.24 269.092 212.68C269.396 212.104 269.548 211.448 269.548 210.712C269.548 209.992 269.396 209.344 269.092 208.768C268.804 208.192 268.412 207.744 267.916 207.424C267.42 207.104 266.868 206.944 266.26 206.944C265.636 206.944 265.076 207.112 264.58 207.448C264.084 207.768 263.692 208.216 263.404 208.792C263.116 209.352 262.972 210 262.972 210.736ZM279.927 217.072C279.095 217.072 278.327 216.912 277.623 216.592C276.935 216.256 276.335 215.792 275.823 215.2C275.327 214.608 274.943 213.928 274.671 213.16C274.399 212.392 274.263 211.576 274.263 210.712C274.263 209.8 274.407 208.952 274.695 208.168C274.983 207.384 275.383 206.696 275.895 206.104C276.423 205.496 277.039 205.032 277.743 204.712C278.463 204.376 279.255 204.208 280.119 204.208C281.095 204.208 281.951 204.432 282.687 204.88C283.423 205.312 284.031 205.896 284.511 206.632V204.424H287.319V216.4C287.319 217.648 287.015 218.712 286.407 219.592C285.815 220.488 284.991 221.168 283.935 221.632C282.879 222.112 281.679 222.352 280.335 222.352C278.975 222.352 277.823 222.12 276.879 221.656C275.935 221.208 275.127 220.568 274.455 219.736L276.207 218.032C276.687 218.624 277.287 219.088 278.007 219.424C278.743 219.76 279.519 219.928 280.335 219.928C281.023 219.928 281.647 219.8 282.207 219.544C282.783 219.304 283.239 218.92 283.575 218.392C283.927 217.88 284.103 217.216 284.103 216.4V214.816C283.687 215.536 283.095 216.096 282.327 216.496C281.575 216.88 280.775 217.072 279.927 217.072ZM281.007 214.504C281.359 214.504 281.695 214.448 282.015 214.336C282.335 214.224 282.631 214.072 282.903 213.88C283.175 213.688 283.415 213.464 283.623 213.208C283.831 212.936 283.991 212.664 284.103 212.392V209.392C283.911 208.896 283.639 208.464 283.287 208.096C282.951 207.728 282.567 207.448 282.135 207.256C281.719 207.048 281.279 206.944 280.815 206.944C280.319 206.944 279.871 207.048 279.471 207.256C279.071 207.464 278.727 207.76 278.439 208.144C278.151 208.512 277.927 208.928 277.767 209.392C277.623 209.84 277.551 210.312 277.551 210.808C277.551 211.32 277.639 211.8 277.815 212.248C277.991 212.696 278.231 213.088 278.535 213.424C278.855 213.76 279.223 214.024 279.639 214.216C280.071 214.408 280.527 214.504 281.007 214.504ZM301.792 217.24C300.768 217.24 299.848 217.072 299.032 216.736C298.216 216.384 297.52 215.904 296.944 215.296C296.384 214.688 295.952 213.992 295.648 213.208C295.344 212.424 295.192 211.6 295.192 210.736C295.192 209.856 295.344 209.024 295.648 208.24C295.952 207.456 296.384 206.76 296.944 206.152C297.52 205.544 298.216 205.072 299.032 204.736C299.848 204.384 300.768 204.208 301.792 204.208C302.816 204.208 303.728 204.384 304.528 204.736C305.344 205.072 306.04 205.544 306.616 206.152C307.192 206.76 307.624 207.456 307.912 208.24C308.216 209.024 308.368 209.856 308.368 210.736C308.368 211.6 308.216 212.424 307.912 213.208C307.624 213.992 307.192 214.688 306.616 215.296C306.056 215.904 305.368 216.384 304.552 216.736C303.736 217.072 302.816 217.24 301.792 217.24ZM298.504 210.736C298.504 211.472 298.648 212.128 298.936 212.704C299.224 213.264 299.616 213.704 300.112 214.024C300.608 214.344 301.168 214.504 301.792 214.504C302.4 214.504 302.952 214.344 303.448 214.024C303.944 213.688 304.336 213.24 304.624 212.68C304.928 212.104 305.08 211.448 305.08 210.712C305.08 209.992 304.928 209.344 304.624 208.768C304.336 208.192 303.944 207.744 303.448 207.424C302.952 207.104 302.4 206.944 301.792 206.944C301.168 206.944 300.608 207.112 300.112 207.448C299.616 207.768 299.224 208.216 298.936 208.792C298.648 209.352 298.504 210 298.504 210.736ZM311.189 217V207.544H309.533V205.096H311.189V204.328C311.189 203.288 311.357 202.392 311.693 201.64C312.045 200.872 312.533 200.28 313.157 199.864C313.797 199.448 314.541 199.24 315.389 199.24C315.901 199.24 316.413 199.304 316.925 199.432C317.453 199.56 317.973 199.744 318.485 199.984L317.837 202.408C317.597 202.28 317.317 202.176 316.997 202.096C316.677 202 316.373 201.952 316.085 201.952C315.541 201.952 315.125 202.144 314.837 202.528C314.549 202.912 314.405 203.472 314.405 204.208V205.096H317.477V207.544H314.405V217H311.189ZM332.09 217.12C330.73 217.12 329.57 216.896 328.61 216.448C327.666 215.984 326.898 215.352 326.306 214.552C325.73 213.752 325.306 212.848 325.034 211.84C324.762 210.816 324.626 209.752 324.626 208.648V199.96H327.938V208.648C327.938 209.352 328.002 210.04 328.13 210.712C328.274 211.368 328.506 211.96 328.826 212.488C329.146 213.016 329.57 213.432 330.098 213.736C330.626 214.04 331.282 214.192 332.066 214.192C332.866 214.192 333.53 214.04 334.058 213.736C334.602 213.416 335.026 212.992 335.33 212.464C335.65 211.936 335.882 211.344 336.026 210.688C336.17 210.016 336.242 209.336 336.242 208.648V199.96H339.53V208.648C339.53 209.816 339.386 210.912 339.098 211.936C338.826 212.96 338.386 213.864 337.778 214.648C337.186 215.416 336.418 216.024 335.474 216.472C334.53 216.904 333.402 217.12 332.09 217.12ZM354.031 217H350.815V209.944C350.815 208.936 350.639 208.2 350.287 207.736C349.935 207.272 349.447 207.04 348.823 207.04C348.391 207.04 347.951 207.152 347.503 207.376C347.071 207.6 346.679 207.912 346.327 208.312C345.975 208.696 345.719 209.144 345.559 209.656V217H342.343V204.424H345.247V206.752C345.567 206.208 345.975 205.752 346.471 205.384C346.967 205 347.535 204.712 348.175 204.52C348.831 204.312 349.519 204.208 350.239 204.208C351.023 204.208 351.663 204.352 352.159 204.64C352.671 204.912 353.055 205.288 353.311 205.768C353.583 206.232 353.767 206.76 353.863 207.352C353.975 207.944 354.031 208.544 354.031 209.152V217ZM356.827 217V204.424H360.043V217H356.827ZM356.827 202.672V199.48H360.043V202.672H356.827ZM363.712 207.544H362.056V205.096H363.712V204.328C363.712 203.624 363.824 202.968 364.048 202.36C364.288 201.752 364.624 201.216 365.056 200.752C365.504 200.272 366.04 199.904 366.664 199.648C367.304 199.376 368.024 199.24 368.824 199.24C369.432 199.24 370 199.304 370.528 199.432C371.072 199.56 371.584 199.744 372.064 199.984C372.56 200.224 373.032 200.496 373.48 200.8L372.208 203.2C371.792 202.832 371.304 202.536 370.744 202.312C370.184 202.088 369.616 201.976 369.04 201.976C368.576 201.976 368.184 202.08 367.864 202.288C367.544 202.496 367.304 202.768 367.144 203.104C367 203.44 366.928 203.808 366.928 204.208V205.096H373.672V217H370.456V207.544H366.928V217H363.712V207.544ZM382.417 217.24C381.409 217.24 380.497 217.072 379.681 216.736C378.865 216.384 378.169 215.912 377.593 215.32C377.017 214.712 376.569 214.024 376.249 213.256C375.945 212.472 375.793 211.648 375.793 210.784C375.793 209.584 376.057 208.488 376.585 207.496C377.129 206.504 377.897 205.712 378.889 205.12C379.897 204.512 381.081 204.208 382.441 204.208C383.817 204.208 384.993 204.512 385.969 205.12C386.945 205.712 387.689 206.504 388.201 207.496C388.729 208.472 388.993 209.528 388.993 210.664C388.993 210.856 388.985 211.056 388.969 211.264C388.953 211.456 388.937 211.616 388.921 211.744H379.201C379.265 212.384 379.449 212.944 379.753 213.424C380.073 213.904 380.473 214.272 380.953 214.528C381.449 214.768 381.977 214.888 382.537 214.888C383.177 214.888 383.777 214.736 384.337 214.432C384.913 214.112 385.305 213.696 385.513 213.184L388.273 213.952C387.969 214.592 387.529 215.16 386.953 215.656C386.393 216.152 385.729 216.544 384.961 216.832C384.193 217.104 383.345 217.24 382.417 217.24ZM379.129 209.704H385.705C385.641 209.064 385.457 208.512 385.153 208.048C384.865 207.568 384.481 207.2 384.001 206.944C383.521 206.672 382.985 206.536 382.393 206.536C381.817 206.536 381.289 206.672 380.809 206.944C380.345 207.2 379.961 207.568 379.657 208.048C379.369 208.512 379.193 209.064 379.129 209.704ZM390.184 210.712C390.184 209.496 390.424 208.4 390.904 207.424C391.384 206.432 392.048 205.648 392.896 205.072C393.744 204.496 394.712 204.208 395.8 204.208C396.728 204.208 397.56 204.44 398.296 204.904C399.048 205.352 399.632 205.928 400.048 206.632V199.48H403.264V213.4C403.264 213.736 403.32 213.976 403.432 214.12C403.544 214.264 403.736 214.352 404.008 214.384V217C403.448 217.112 402.992 217.168 402.64 217.168C402.064 217.168 401.584 217.024 401.2 216.736C400.832 216.448 400.624 216.072 400.576 215.608L400.528 214.816C400.064 215.6 399.432 216.2 398.632 216.616C397.848 217.032 397.024 217.24 396.16 217.24C395.296 217.24 394.496 217.072 393.76 216.736C393.04 216.4 392.408 215.936 391.864 215.344C391.336 214.752 390.92 214.064 390.616 213.28C390.328 212.48 390.184 211.624 390.184 210.712ZM400.048 212.392V209.392C399.888 208.928 399.632 208.512 399.28 208.144C398.928 207.776 398.536 207.488 398.104 207.28C397.672 207.056 397.24 206.944 396.808 206.944C396.312 206.944 395.864 207.048 395.464 207.256C395.064 207.464 394.712 207.744 394.408 208.096C394.12 208.448 393.896 208.856 393.736 209.32C393.592 209.784 393.52 210.272 393.52 210.784C393.52 211.296 393.6 211.784 393.76 212.248C393.936 212.696 394.184 213.088 394.504 213.424C394.824 213.76 395.192 214.024 395.608 214.216C396.04 214.408 396.504 214.504 397 214.504C397.304 214.504 397.608 214.456 397.912 214.36C398.232 214.248 398.528 214.104 398.8 213.928C399.088 213.736 399.336 213.512 399.544 213.256C399.768 212.984 399.936 212.696 400.048 212.392ZM411.467 208.36C411.467 207.32 411.651 206.304 412.019 205.312C412.403 204.304 412.955 203.392 413.675 202.576C414.395 201.744 415.275 201.088 416.315 200.608C417.355 200.112 418.539 199.864 419.867 199.864C421.435 199.864 422.787 200.208 423.923 200.896C425.075 201.584 425.931 202.48 426.491 203.584L423.947 205.336C423.659 204.696 423.283 204.192 422.819 203.824C422.355 203.44 421.859 203.176 421.331 203.032C420.803 202.872 420.283 202.792 419.771 202.792C418.939 202.792 418.211 202.96 417.587 203.296C416.979 203.632 416.467 204.072 416.051 204.616C415.635 205.16 415.323 205.768 415.115 206.44C414.923 207.112 414.827 207.784 414.827 208.456C414.827 209.208 414.947 209.936 415.187 210.64C415.427 211.328 415.763 211.944 416.195 212.488C416.643 213.016 417.171 213.44 417.779 213.76C418.403 214.064 419.083 214.216 419.819 214.216C420.347 214.216 420.883 214.128 421.427 213.952C421.971 213.776 422.475 213.496 422.939 213.112C423.403 212.728 423.763 212.232 424.019 211.624L426.731 213.184C426.395 214.032 425.843 214.752 425.075 215.344C424.323 215.936 423.475 216.384 422.531 216.688C421.587 216.992 420.651 217.144 419.723 217.144C418.507 217.144 417.395 216.896 416.387 216.4C415.379 215.888 414.507 215.216 413.771 214.384C413.051 213.536 412.483 212.592 412.067 211.552C411.667 210.496 411.467 209.432 411.467 208.36ZM440.328 217H437.112V209.944C437.112 208.968 436.92 208.24 436.536 207.76C436.168 207.28 435.656 207.04 435 207.04C434.616 207.04 434.208 207.152 433.776 207.376C433.344 207.6 432.952 207.912 432.6 208.312C432.264 208.696 432.016 209.144 431.856 209.656V217H428.64V199.48H431.856V206.752C432.32 205.952 432.952 205.328 433.752 204.88C434.552 204.432 435.424 204.208 436.368 204.208C437.184 204.208 437.848 204.352 438.36 204.64C438.872 204.912 439.272 205.288 439.56 205.768C439.848 206.232 440.048 206.76 440.16 207.352C440.272 207.928 440.328 208.528 440.328 209.152V217ZM448.932 217.24C447.908 217.24 446.988 217.072 446.172 216.736C445.356 216.384 444.66 215.904 444.084 215.296C443.524 214.688 443.092 213.992 442.788 213.208C442.484 212.424 442.332 211.6 442.332 210.736C442.332 209.856 442.484 209.024 442.788 208.24C443.092 207.456 443.524 206.76 444.084 206.152C444.66 205.544 445.356 205.072 446.172 204.736C446.988 204.384 447.908 204.208 448.932 204.208C449.956 204.208 450.868 204.384 451.668 204.736C452.484 205.072 453.18 205.544 453.756 206.152C454.332 206.76 454.764 207.456 455.052 208.24C455.356 209.024 455.508 209.856 455.508 210.736C455.508 211.6 455.356 212.424 455.052 213.208C454.764 213.992 454.332 214.688 453.756 215.296C453.196 215.904 452.508 216.384 451.692 216.736C450.876 217.072 449.956 217.24 448.932 217.24ZM445.644 210.736C445.644 211.472 445.788 212.128 446.076 212.704C446.364 213.264 446.756 213.704 447.252 214.024C447.748 214.344 448.308 214.504 448.932 214.504C449.54 214.504 450.092 214.344 450.588 214.024C451.084 213.688 451.476 213.24 451.764 212.68C452.068 212.104 452.22 211.448 452.22 210.712C452.22 209.992 452.068 209.344 451.764 208.768C451.476 208.192 451.084 207.744 450.588 207.424C450.092 207.104 449.54 206.944 448.932 206.944C448.308 206.944 447.748 207.112 447.252 207.448C446.756 207.768 446.364 208.216 446.076 208.792C445.788 209.352 445.644 210 445.644 210.736ZM457.679 217V204.424H460.895V217H457.679ZM457.679 202.672V199.48H460.895V202.672H457.679ZM469.652 217.24C468.628 217.24 467.708 217.072 466.892 216.736C466.076 216.384 465.38 215.904 464.804 215.296C464.228 214.672 463.78 213.968 463.46 213.184C463.156 212.4 463.004 211.576 463.004 210.712C463.004 209.528 463.268 208.448 463.796 207.472C464.34 206.48 465.108 205.688 466.1 205.096C467.092 204.504 468.268 204.208 469.628 204.208C470.988 204.208 472.156 204.504 473.132 205.096C474.108 205.688 474.836 206.464 475.316 207.424L472.172 208.384C471.9 207.92 471.54 207.568 471.092 207.328C470.644 207.072 470.148 206.944 469.604 206.944C468.996 206.944 468.436 207.104 467.924 207.424C467.428 207.728 467.036 208.168 466.748 208.744C466.46 209.304 466.316 209.96 466.316 210.712C466.316 211.448 466.46 212.104 466.748 212.68C467.052 213.24 467.452 213.688 467.948 214.024C468.444 214.344 468.996 214.504 469.604 214.504C469.988 214.504 470.348 214.44 470.684 214.312C471.036 214.184 471.348 214.008 471.62 213.784C471.892 213.56 472.092 213.304 472.22 213.016L475.364 213.976C475.076 214.6 474.652 215.16 474.092 215.656C473.548 216.152 472.9 216.544 472.148 216.832C471.412 217.104 470.58 217.24 469.652 217.24ZM483.058 217.24C482.05 217.24 481.138 217.072 480.322 216.736C479.506 216.384 478.81 215.912 478.234 215.32C477.658 214.712 477.21 214.024 476.89 213.256C476.586 212.472 476.434 211.648 476.434 210.784C476.434 209.584 476.698 208.488 477.226 207.496C477.77 206.504 478.538 205.712 479.53 205.12C480.538 204.512 481.722 204.208 483.082 204.208C484.458 204.208 485.634 204.512 486.61 205.12C487.586 205.712 488.33 206.504 488.842 207.496C489.37 208.472 489.634 209.528 489.634 210.664C489.634 210.856 489.626 211.056 489.61 211.264C489.594 211.456 489.578 211.616 489.562 211.744H479.842C479.906 212.384 480.09 212.944 480.394 213.424C480.714 213.904 481.114 214.272 481.594 214.528C482.09 214.768 482.618 214.888 483.178 214.888C483.818 214.888 484.418 214.736 484.978 214.432C485.554 214.112 485.946 213.696 486.154 213.184L488.914 213.952C488.61 214.592 488.17 215.16 487.594 215.656C487.034 216.152 486.37 216.544 485.602 216.832C484.834 217.104 483.986 217.24 483.058 217.24ZM479.77 209.704H486.346C486.282 209.064 486.098 208.512 485.794 208.048C485.506 207.568 485.122 207.2 484.642 206.944C484.162 206.672 483.626 206.536 483.034 206.536C482.458 206.536 481.93 206.672 481.45 206.944C480.986 207.2 480.602 207.568 480.298 208.048C480.01 208.512 479.834 209.064 479.77 209.704ZM496.225 217.24C495.153 217.24 494.129 217.064 493.153 216.712C492.177 216.36 491.337 215.84 490.633 215.152L491.785 213.064C492.537 213.672 493.273 214.12 493.993 214.408C494.729 214.696 495.433 214.84 496.105 214.84C496.729 214.84 497.225 214.728 497.593 214.504C497.977 214.28 498.169 213.944 498.169 213.496C498.169 213.192 498.065 212.96 497.857 212.8C497.649 212.624 497.345 212.472 496.945 212.344C496.561 212.216 496.089 212.072 495.529 211.912C494.601 211.608 493.825 211.312 493.201 211.024C492.577 210.736 492.105 210.376 491.785 209.944C491.481 209.496 491.329 208.928 491.329 208.24C491.329 207.408 491.537 206.696 491.953 206.104C492.385 205.496 492.977 205.024 493.729 204.688C494.497 204.352 495.393 204.184 496.417 204.184C497.313 204.184 498.161 204.328 498.961 204.616C499.761 204.888 500.489 205.336 501.145 205.96L499.849 208C499.209 207.504 498.601 207.144 498.025 206.92C497.449 206.68 496.865 206.56 496.273 206.56C495.937 206.56 495.617 206.6 495.313 206.68C495.025 206.76 494.785 206.896 494.593 207.088C494.417 207.264 494.329 207.52 494.329 207.856C494.329 208.16 494.409 208.4 494.569 208.576C494.745 208.736 495.001 208.88 495.337 209.008C495.689 209.136 496.113 209.28 496.609 209.44C497.617 209.728 498.465 210.024 499.153 210.328C499.857 210.632 500.385 211.008 500.737 211.456C501.089 211.888 501.265 212.488 501.265 213.256C501.265 214.504 500.809 215.48 499.897 216.184C498.985 216.888 497.761 217.24 496.225 217.24ZM508.354 213.28C508.354 212.464 508.578 211.752 509.026 211.144C509.49 210.52 510.13 210.04 510.946 209.704C511.762 209.368 512.698 209.2 513.754 209.2C514.282 209.2 514.818 209.24 515.362 209.32C515.906 209.4 516.378 209.528 516.778 209.704V209.032C516.778 208.232 516.538 207.616 516.058 207.184C515.594 206.752 514.898 206.536 513.97 206.536C513.282 206.536 512.626 206.656 512.002 206.896C511.378 207.136 510.722 207.488 510.034 207.952L509.002 205.84C509.834 205.296 510.682 204.888 511.546 204.616C512.426 204.344 513.346 204.208 514.306 204.208C516.098 204.208 517.49 204.656 518.482 205.552C519.49 206.448 519.994 207.728 519.994 209.392V213.4C519.994 213.736 520.05 213.976 520.162 214.12C520.29 214.264 520.49 214.352 520.762 214.384V217C520.474 217.048 520.21 217.088 519.97 217.12C519.746 217.152 519.554 217.168 519.394 217.168C518.754 217.168 518.266 217.024 517.93 216.736C517.61 216.448 517.41 216.096 517.33 215.68L517.258 215.032C516.714 215.736 516.034 216.28 515.218 216.664C514.402 217.048 513.57 217.24 512.722 217.24C511.89 217.24 511.138 217.072 510.466 216.736C509.81 216.384 509.29 215.912 508.906 215.32C508.538 214.712 508.354 214.032 508.354 213.28ZM516.178 213.928C516.354 213.736 516.498 213.544 516.61 213.352C516.722 213.16 516.778 212.984 516.778 212.824V211.552C516.394 211.392 515.978 211.272 515.53 211.192C515.082 211.096 514.658 211.048 514.258 211.048C513.426 211.048 512.738 211.232 512.194 211.6C511.666 211.952 511.402 212.424 511.402 213.016C511.402 213.336 511.49 213.64 511.666 213.928C511.842 214.216 512.098 214.448 512.434 214.624C512.77 214.8 513.17 214.888 513.634 214.888C514.114 214.888 514.586 214.8 515.05 214.624C515.514 214.432 515.89 214.2 516.178 213.928ZM534.687 217H531.471V209.944C531.471 208.936 531.295 208.2 530.943 207.736C530.591 207.272 530.103 207.04 529.479 207.04C529.047 207.04 528.607 207.152 528.159 207.376C527.727 207.6 527.335 207.912 526.983 208.312C526.631 208.696 526.375 209.144 526.215 209.656V217H522.999V204.424H525.903V206.752C526.223 206.208 526.631 205.752 527.127 205.384C527.623 205 528.191 204.712 528.831 204.52C529.487 204.312 530.175 204.208 530.895 204.208C531.679 204.208 532.319 204.352 532.815 204.64C533.327 204.912 533.711 205.288 533.967 205.768C534.239 206.232 534.423 206.76 534.519 207.352C534.631 207.944 534.687 208.544 534.687 209.152V217ZM536.716 210.712C536.716 209.496 536.956 208.4 537.436 207.424C537.916 206.432 538.58 205.648 539.428 205.072C540.276 204.496 541.244 204.208 542.332 204.208C543.26 204.208 544.092 204.44 544.828 204.904C545.58 205.352 546.164 205.928 546.58 206.632V199.48H549.796V213.4C549.796 213.736 549.852 213.976 549.964 214.12C550.076 214.264 550.268 214.352 550.54 214.384V217C549.98 217.112 549.524 217.168 549.172 217.168C548.596 217.168 548.116 217.024 547.732 216.736C547.364 216.448 547.156 216.072 547.108 215.608L547.06 214.816C546.596 215.6 545.964 216.2 545.164 216.616C544.38 217.032 543.556 217.24 542.692 217.24C541.828 217.24 541.028 217.072 540.292 216.736C539.572 216.4 538.94 215.936 538.396 215.344C537.868 214.752 537.452 214.064 537.148 213.28C536.86 212.48 536.716 211.624 536.716 210.712ZM546.58 212.392V209.392C546.42 208.928 546.164 208.512 545.812 208.144C545.46 207.776 545.068 207.488 544.636 207.28C544.204 207.056 543.772 206.944 543.34 206.944C542.844 206.944 542.396 207.048 541.996 207.256C541.596 207.464 541.244 207.744 540.94 208.096C540.652 208.448 540.428 208.856 540.268 209.32C540.124 209.784 540.052 210.272 540.052 210.784C540.052 211.296 540.132 211.784 540.292 212.248C540.468 212.696 540.716 213.088 541.036 213.424C541.356 213.76 541.724 214.024 542.14 214.216C542.572 214.408 543.036 214.504 543.532 214.504C543.836 214.504 544.14 214.456 544.444 214.36C544.764 214.248 545.06 214.104 545.332 213.928C545.62 213.736 545.868 213.512 546.076 213.256C546.3 212.984 546.468 212.696 546.58 212.392ZM559.03 217V199.96H562.342V217H559.03ZM577.273 217H574.057V209.944C574.057 208.936 573.881 208.2 573.529 207.736C573.177 207.272 572.689 207.04 572.065 207.04C571.633 207.04 571.193 207.152 570.745 207.376C570.313 207.6 569.921 207.912 569.569 208.312C569.217 208.696 568.961 209.144 568.801 209.656V217H565.585V204.424H568.489V206.752C568.809 206.208 569.217 205.752 569.713 205.384C570.209 205 570.777 204.712 571.417 204.52C572.073 204.312 572.761 204.208 573.481 204.208C574.265 204.208 574.905 204.352 575.401 204.64C575.913 204.912 576.297 205.288 576.553 205.768C576.825 206.232 577.009 206.76 577.105 207.352C577.217 207.944 577.273 208.544 577.273 209.152V217ZM584.701 217.24C583.629 217.24 582.605 217.064 581.629 216.712C580.653 216.36 579.813 215.84 579.109 215.152L580.261 213.064C581.013 213.672 581.749 214.12 582.469 214.408C583.205 214.696 583.909 214.84 584.581 214.84C585.205 214.84 585.701 214.728 586.069 214.504C586.453 214.28 586.645 213.944 586.645 213.496C586.645 213.192 586.541 212.96 586.333 212.8C586.125 212.624 585.821 212.472 585.421 212.344C585.037 212.216 584.565 212.072 584.005 211.912C583.077 211.608 582.301 211.312 581.677 211.024C581.053 210.736 580.581 210.376 580.261 209.944C579.957 209.496 579.805 208.928 579.805 208.24C579.805 207.408 580.013 206.696 580.429 206.104C580.861 205.496 581.453 205.024 582.205 204.688C582.973 204.352 583.869 204.184 584.893 204.184C585.789 204.184 586.637 204.328 587.437 204.616C588.237 204.888 588.965 205.336 589.621 205.96L588.325 208C587.685 207.504 587.077 207.144 586.501 206.92C585.925 206.68 585.341 206.56 584.749 206.56C584.413 206.56 584.093 206.6 583.789 206.68C583.501 206.76 583.261 206.896 583.069 207.088C582.893 207.264 582.805 207.52 582.805 207.856C582.805 208.16 582.885 208.4 583.045 208.576C583.221 208.736 583.477 208.88 583.813 209.008C584.165 209.136 584.589 209.28 585.085 209.44C586.093 209.728 586.941 210.024 587.629 210.328C588.333 210.632 588.861 211.008 589.213 211.456C589.565 211.888 589.741 212.488 589.741 213.256C589.741 214.504 589.285 215.48 588.373 216.184C587.461 216.888 586.237 217.24 584.701 217.24ZM591.929 217V204.424H595.145V217H591.929ZM591.929 202.672V199.48H595.145V202.672H591.929ZM602.966 217.072C602.134 217.072 601.366 216.912 600.662 216.592C599.974 216.256 599.374 215.792 598.862 215.2C598.366 214.608 597.982 213.928 597.71 213.16C597.438 212.392 597.302 211.576 597.302 210.712C597.302 209.8 597.446 208.952 597.734 208.168C598.022 207.384 598.422 206.696 598.934 206.104C599.462 205.496 600.078 205.032 600.782 204.712C601.502 204.376 602.294 204.208 603.158 204.208C604.134 204.208 604.99 204.432 605.726 204.88C606.462 205.312 607.07 205.896 607.55 206.632V204.424H610.358V216.4C610.358 217.648 610.054 218.712 609.446 219.592C608.854 220.488 608.03 221.168 606.974 221.632C605.918 222.112 604.718 222.352 603.374 222.352C602.014 222.352 600.862 222.12 599.918 221.656C598.974 221.208 598.166 220.568 597.494 219.736L599.246 218.032C599.726 218.624 600.326 219.088 601.046 219.424C601.782 219.76 602.558 219.928 603.374 219.928C604.062 219.928 604.686 219.8 605.246 219.544C605.822 219.304 606.278 218.92 606.614 218.392C606.966 217.88 607.142 217.216 607.142 216.4V214.816C606.726 215.536 606.134 216.096 605.366 216.496C604.614 216.88 603.814 217.072 602.966 217.072ZM604.046 214.504C604.398 214.504 604.734 214.448 605.054 214.336C605.374 214.224 605.67 214.072 605.942 213.88C606.214 213.688 606.454 213.464 606.662 213.208C606.87 212.936 607.03 212.664 607.142 212.392V209.392C606.95 208.896 606.678 208.464 606.326 208.096C605.99 207.728 605.606 207.448 605.174 207.256C604.758 207.048 604.318 206.944 603.854 206.944C603.358 206.944 602.91 207.048 602.51 207.256C602.11 207.464 601.766 207.76 601.478 208.144C601.19 208.512 600.966 208.928 600.806 209.392C600.662 209.84 600.59 210.312 600.59 210.808C600.59 211.32 600.678 211.8 600.854 212.248C601.03 212.696 601.27 213.088 601.574 213.424C601.894 213.76 602.262 214.024 602.678 214.216C603.11 214.408 603.566 214.504 604.046 214.504ZM624.945 217H621.729V209.944C621.729 208.968 621.537 208.24 621.153 207.76C620.785 207.28 620.273 207.04 619.617 207.04C619.233 207.04 618.825 207.152 618.393 207.376C617.961 207.6 617.569 207.912 617.217 208.312C616.881 208.696 616.633 209.144 616.473 209.656V217H613.257V199.48H616.473V206.752C616.937 205.952 617.569 205.328 618.369 204.88C619.169 204.432 620.041 204.208 620.985 204.208C621.801 204.208 622.465 204.352 622.977 204.64C623.489 204.912 623.889 205.288 624.177 205.768C624.465 206.232 624.665 206.76 624.777 207.352C624.889 207.928 624.945 208.528 624.945 209.152V217ZM635.207 216.352C634.935 216.464 634.607 216.592 634.223 216.736C633.839 216.88 633.423 216.992 632.975 217.072C632.543 217.168 632.103 217.216 631.655 217.216C631.063 217.216 630.519 217.112 630.023 216.904C629.527 216.696 629.127 216.368 628.823 215.92C628.535 215.456 628.391 214.856 628.391 214.12V206.896H626.735V204.424H628.391V200.344H631.607V204.424H634.247V206.896H631.607V213.04C631.623 213.472 631.743 213.784 631.967 213.976C632.191 214.168 632.471 214.264 632.807 214.264C633.143 214.264 633.471 214.208 633.791 214.096C634.111 213.984 634.367 213.888 634.559 213.808L635.207 216.352ZM641.514 217.24C640.442 217.24 639.418 217.064 638.442 216.712C637.466 216.36 636.626 215.84 635.922 215.152L637.074 213.064C637.826 213.672 638.562 214.12 639.282 214.408C640.018 214.696 640.722 214.84 641.394 214.84C642.018 214.84 642.514 214.728 642.882 214.504C643.266 214.28 643.458 213.944 643.458 213.496C643.458 213.192 643.354 212.96 643.146 212.8C642.938 212.624 642.634 212.472 642.234 212.344C641.85 212.216 641.378 212.072 640.818 211.912C639.89 211.608 639.114 211.312 638.49 211.024C637.866 210.736 637.394 210.376 637.074 209.944C636.77 209.496 636.618 208.928 636.618 208.24C636.618 207.408 636.826 206.696 637.242 206.104C637.674 205.496 638.266 205.024 639.018 204.688C639.786 204.352 640.682 204.184 641.706 204.184C642.602 204.184 643.45 204.328 644.25 204.616C645.05 204.888 645.778 205.336 646.434 205.96L645.138 208C644.498 207.504 643.89 207.144 643.314 206.92C642.738 206.68 642.154 206.56 641.562 206.56C641.226 206.56 640.906 206.6 640.602 206.68C640.314 206.76 640.074 206.896 639.882 207.088C639.706 207.264 639.618 207.52 639.618 207.856C639.618 208.16 639.698 208.4 639.858 208.576C640.034 208.736 640.29 208.88 640.626 209.008C640.978 209.136 641.402 209.28 641.898 209.44C642.906 209.728 643.754 210.024 644.442 210.328C645.146 210.632 645.674 211.008 646.026 211.456C646.378 211.888 646.554 212.488 646.554 213.256C646.554 214.504 646.098 215.48 645.186 216.184C644.274 216.888 643.05 217.24 641.514 217.24ZM654.819 217V199.96H661.011C662.867 199.96 664.419 200.344 665.667 201.112C666.915 201.864 667.851 202.888 668.475 204.184C669.099 205.464 669.411 206.888 669.411 208.456C669.411 210.184 669.067 211.688 668.379 212.968C667.691 214.248 666.715 215.24 665.451 215.944C664.203 216.648 662.723 217 661.011 217H654.819ZM666.075 208.456C666.075 207.352 665.875 206.384 665.475 205.552C665.075 204.704 664.499 204.048 663.747 203.584C662.995 203.104 662.083 202.864 661.011 202.864H658.131V214.096H661.011C662.099 214.096 663.019 213.856 663.771 213.376C664.523 212.88 665.091 212.208 665.475 211.36C665.875 210.496 666.075 209.528 666.075 208.456ZM670.659 213.28C670.659 212.464 670.883 211.752 671.331 211.144C671.795 210.52 672.435 210.04 673.251 209.704C674.067 209.368 675.003 209.2 676.059 209.2C676.587 209.2 677.123 209.24 677.667 209.32C678.211 209.4 678.683 209.528 679.083 209.704V209.032C679.083 208.232 678.843 207.616 678.363 207.184C677.899 206.752 677.203 206.536 676.275 206.536C675.587 206.536 674.931 206.656 674.307 206.896C673.683 207.136 673.027 207.488 672.339 207.952L671.307 205.84C672.139 205.296 672.987 204.888 673.851 204.616C674.731 204.344 675.651 204.208 676.611 204.208C678.403 204.208 679.795 204.656 680.787 205.552C681.795 206.448 682.299 207.728 682.299 209.392V213.4C682.299 213.736 682.355 213.976 682.467 214.12C682.595 214.264 682.795 214.352 683.067 214.384V217C682.779 217.048 682.515 217.088 682.275 217.12C682.051 217.152 681.859 217.168 681.699 217.168C681.059 217.168 680.571 217.024 680.235 216.736C679.915 216.448 679.715 216.096 679.635 215.68L679.563 215.032C679.019 215.736 678.339 216.28 677.523 216.664C676.707 217.048 675.875 217.24 675.027 217.24C674.195 217.24 673.443 217.072 672.771 216.736C672.115 216.384 671.595 215.912 671.211 215.32C670.843 214.712 670.659 214.032 670.659 213.28ZM678.483 213.928C678.659 213.736 678.803 213.544 678.915 213.352C679.027 213.16 679.083 212.984 679.083 212.824V211.552C678.699 211.392 678.283 211.272 677.835 211.192C677.387 211.096 676.963 211.048 676.563 211.048C675.731 211.048 675.043 211.232 674.499 211.6C673.971 211.952 673.707 212.424 673.707 213.016C673.707 213.336 673.795 213.64 673.971 213.928C674.147 214.216 674.403 214.448 674.739 214.624C675.075 214.8 675.475 214.888 675.939 214.888C676.419 214.888 676.891 214.8 677.355 214.624C677.819 214.432 678.195 214.2 678.483 213.928ZM692.723 216.352C692.451 216.464 692.123 216.592 691.739 216.736C691.355 216.88 690.939 216.992 690.491 217.072C690.059 217.168 689.619 217.216 689.171 217.216C688.579 217.216 688.035 217.112 687.539 216.904C687.043 216.696 686.643 216.368 686.339 215.92C686.051 215.456 685.907 214.856 685.907 214.12V206.896H684.251V204.424H685.907V200.344H689.123V204.424H691.763V206.896H689.123V213.04C689.139 213.472 689.259 213.784 689.483 213.976C689.707 214.168 689.987 214.264 690.323 214.264C690.659 214.264 690.987 214.208 691.307 214.096C691.627 213.984 691.883 213.888 692.075 213.808L692.723 216.352ZM693.534 213.28C693.534 212.464 693.758 211.752 694.206 211.144C694.67 210.52 695.31 210.04 696.126 209.704C696.942 209.368 697.878 209.2 698.934 209.2C699.462 209.2 699.998 209.24 700.542 209.32C701.086 209.4 701.558 209.528 701.958 209.704V209.032C701.958 208.232 701.718 207.616 701.238 207.184C700.774 206.752 700.078 206.536 699.15 206.536C698.462 206.536 697.806 206.656 697.182 206.896C696.558 207.136 695.902 207.488 695.214 207.952L694.182 205.84C695.014 205.296 695.862 204.888 696.726 204.616C697.606 204.344 698.526 204.208 699.486 204.208C701.278 204.208 702.67 204.656 703.662 205.552C704.67 206.448 705.174 207.728 705.174 209.392V213.4C705.174 213.736 705.23 213.976 705.342 214.12C705.47 214.264 705.67 214.352 705.942 214.384V217C705.654 217.048 705.39 217.088 705.15 217.12C704.926 217.152 704.734 217.168 704.574 217.168C703.934 217.168 703.446 217.024 703.11 216.736C702.79 216.448 702.59 216.096 702.51 215.68L702.438 215.032C701.894 215.736 701.214 216.28 700.398 216.664C699.582 217.048 698.75 217.24 697.902 217.24C697.07 217.24 696.318 217.072 695.646 216.736C694.99 216.384 694.47 215.912 694.086 215.32C693.718 214.712 693.534 214.032 693.534 213.28ZM701.358 213.928C701.534 213.736 701.678 213.544 701.79 213.352C701.902 213.16 701.958 212.984 701.958 212.824V211.552C701.574 211.392 701.158 211.272 700.71 211.192C700.262 211.096 699.838 211.048 699.438 211.048C698.606 211.048 697.918 211.232 697.374 211.6C696.846 211.952 696.582 212.424 696.582 213.016C696.582 213.336 696.67 213.64 696.846 213.928C697.022 214.216 697.278 214.448 697.614 214.624C697.95 214.8 698.35 214.888 698.814 214.888C699.294 214.888 699.766 214.8 700.23 214.624C700.694 214.432 701.07 214.2 701.358 213.928ZM715.331 217.24C714.371 217.24 713.515 217.024 712.763 216.592C712.011 216.16 711.419 215.568 710.987 214.816V217H708.179V199.48H711.395V206.632C711.843 205.88 712.427 205.288 713.147 204.856C713.883 204.424 714.739 204.208 715.715 204.208C716.531 204.208 717.275 204.384 717.947 204.736C718.619 205.072 719.195 205.544 719.675 206.152C720.171 206.76 720.547 207.456 720.803 208.24C721.075 209.024 721.211 209.864 721.211 210.76C721.211 211.656 721.059 212.496 720.755 213.28C720.467 214.064 720.059 214.76 719.531 215.368C719.003 215.96 718.379 216.424 717.659 216.76C716.955 217.08 716.179 217.24 715.331 217.24ZM714.443 214.504C714.955 214.504 715.419 214.408 715.835 214.216C716.267 214.008 716.635 213.736 716.939 213.4C717.259 213.064 717.499 212.672 717.659 212.224C717.835 211.76 717.923 211.28 717.923 210.784C717.923 210.096 717.779 209.464 717.491 208.888C717.219 208.296 716.835 207.824 716.339 207.472C715.859 207.12 715.291 206.944 714.635 206.944C714.171 206.944 713.723 207.056 713.291 207.28C712.875 207.488 712.499 207.776 712.163 208.144C711.843 208.512 711.587 208.928 711.395 209.392V212.392C711.491 212.712 711.643 213 711.851 213.256C712.075 213.512 712.331 213.736 712.619 213.928C712.907 214.104 713.203 214.248 713.507 214.36C713.827 214.456 714.139 214.504 714.443 214.504ZM722.526 213.28C722.526 212.464 722.75 211.752 723.198 211.144C723.662 210.52 724.302 210.04 725.118 209.704C725.934 209.368 726.87 209.2 727.926 209.2C728.454 209.2 728.99 209.24 729.534 209.32C730.078 209.4 730.55 209.528 730.95 209.704V209.032C730.95 208.232 730.71 207.616 730.23 207.184C729.766 206.752 729.07 206.536 728.142 206.536C727.454 206.536 726.798 206.656 726.174 206.896C725.55 207.136 724.894 207.488 724.206 207.952L723.174 205.84C724.006 205.296 724.854 204.888 725.718 204.616C726.598 204.344 727.518 204.208 728.478 204.208C730.27 204.208 731.662 204.656 732.654 205.552C733.662 206.448 734.166 207.728 734.166 209.392V213.4C734.166 213.736 734.222 213.976 734.334 214.12C734.462 214.264 734.662 214.352 734.934 214.384V217C734.646 217.048 734.382 217.088 734.142 217.12C733.918 217.152 733.726 217.168 733.566 217.168C732.926 217.168 732.438 217.024 732.102 216.736C731.782 216.448 731.582 216.096 731.502 215.68L731.43 215.032C730.886 215.736 730.206 216.28 729.39 216.664C728.574 217.048 727.742 217.24 726.894 217.24C726.062 217.24 725.31 217.072 724.638 216.736C723.982 216.384 723.462 215.912 723.078 215.32C722.71 214.712 722.526 214.032 722.526 213.28ZM730.35 213.928C730.526 213.736 730.67 213.544 730.782 213.352C730.894 213.16 730.95 212.984 730.95 212.824V211.552C730.566 211.392 730.15 211.272 729.702 211.192C729.254 211.096 728.83 211.048 728.43 211.048C727.598 211.048 726.91 211.232 726.366 211.6C725.838 211.952 725.574 212.424 725.574 213.016C725.574 213.336 725.662 213.64 725.838 213.928C726.014 214.216 726.27 214.448 726.606 214.624C726.942 214.8 727.342 214.888 727.806 214.888C728.286 214.888 728.758 214.8 729.222 214.624C729.686 214.432 730.062 214.2 730.35 213.928ZM741.803 217.24C740.731 217.24 739.707 217.064 738.731 216.712C737.755 216.36 736.915 215.84 736.211 215.152L737.363 213.064C738.115 213.672 738.851 214.12 739.571 214.408C740.307 214.696 741.011 214.84 741.683 214.84C742.307 214.84 742.803 214.728 743.171 214.504C743.555 214.28 743.747 213.944 743.747 213.496C743.747 213.192 743.643 212.96 743.435 212.8C743.227 212.624 742.923 212.472 742.523 212.344C742.139 212.216 741.667 212.072 741.107 211.912C740.179 211.608 739.403 211.312 738.779 211.024C738.155 210.736 737.683 210.376 737.363 209.944C737.059 209.496 736.907 208.928 736.907 208.24C736.907 207.408 737.115 206.696 737.531 206.104C737.963 205.496 738.555 205.024 739.307 204.688C740.075 204.352 740.971 204.184 741.995 204.184C742.891 204.184 743.739 204.328 744.539 204.616C745.339 204.888 746.067 205.336 746.723 205.96L745.427 208C744.787 207.504 744.179 207.144 743.603 206.92C743.027 206.68 742.443 206.56 741.851 206.56C741.515 206.56 741.195 206.6 740.891 206.68C740.603 206.76 740.363 206.896 740.171 207.088C739.995 207.264 739.907 207.52 739.907 207.856C739.907 208.16 739.987 208.4 740.147 208.576C740.323 208.736 740.579 208.88 740.915 209.008C741.267 209.136 741.691 209.28 742.187 209.44C743.195 209.728 744.043 210.024 744.731 210.328C745.435 210.632 745.963 211.008 746.315 211.456C746.667 211.888 746.843 212.488 746.843 213.256C746.843 214.504 746.387 215.48 745.475 216.184C744.563 216.888 743.339 217.24 741.803 217.24ZM754.862 217.24C753.854 217.24 752.942 217.072 752.126 216.736C751.31 216.384 750.614 215.912 750.038 215.32C749.462 214.712 749.014 214.024 748.694 213.256C748.39 212.472 748.238 211.648 748.238 210.784C748.238 209.584 748.502 208.488 749.03 207.496C749.574 206.504 750.342 205.712 751.334 205.12C752.342 204.512 753.526 204.208 754.886 204.208C756.262 204.208 757.438 204.512 758.414 205.12C759.39 205.712 760.134 206.504 760.646 207.496C761.174 208.472 761.438 209.528 761.438 210.664C761.438 210.856 761.43 211.056 761.414 211.264C761.398 211.456 761.382 211.616 761.366 211.744H751.646C751.71 212.384 751.894 212.944 752.198 213.424C752.518 213.904 752.918 214.272 753.398 214.528C753.894 214.768 754.422 214.888 754.982 214.888C755.622 214.888 756.222 214.736 756.782 214.432C757.358 214.112 757.75 213.696 757.958 213.184L760.718 213.952C760.414 214.592 759.974 215.16 759.398 215.656C758.838 216.152 758.174 216.544 757.406 216.832C756.638 217.104 755.79 217.24 754.862 217.24ZM751.574 209.704H758.15C758.086 209.064 757.902 208.512 757.598 208.048C757.31 207.568 756.926 207.2 756.446 206.944C755.966 206.672 755.43 206.536 754.838 206.536C754.262 206.536 753.734 206.672 753.254 206.944C752.79 207.2 752.406 207.568 752.102 208.048C751.814 208.512 751.638 209.064 751.574 209.704Z" fill="white"/>
</svg>
